<svg id="logo-steeple" xmlns="http://www.w3.org/2000/svg" width="24.172" height="36" viewBox="0 0 24.172 36">
  <path id="Tracé_1" data-name="Tracé 1" d="M27.8,44.978a8.007,8.007,0,0,1-3.447-2.867,7.58,7.58,0,0,1-1.211-4.262A8.069,8.069,0,0,1,24,34.123a6.959,6.959,0,0,1,2.327-2.655,5.7,5.7,0,0,1,3.236-.977,4.544,4.544,0,0,1,2.75.815,3.494,3.494,0,0,1,1.4,2.259,5.607,5.607,0,0,0-3.866,1.283,4.406,4.406,0,0,0-1.445,3.47,4.163,4.163,0,0,0,4.424,4.424A5.44,5.44,0,0,0,36.9,41.09,5.741,5.741,0,0,0,38.5,36.922a7.767,7.767,0,0,0-1.211-4.145,39.108,39.108,0,0,0-3.632-4.753,40.219,40.219,0,0,1-3.789-4.96,8.46,8.46,0,0,1-1.283-4.541,7.434,7.434,0,0,1,1.35-4.357,9.236,9.236,0,0,1,3.726-3.051A12.409,12.409,0,0,1,39.022,10a9.509,9.509,0,0,1,6.031,1.769,5.719,5.719,0,0,1,2.259,4.753,4.888,4.888,0,0,1-.977,3.168A3.142,3.142,0,0,1,43.775,20.9a3.361,3.361,0,0,1-2.84-1.445,4.522,4.522,0,0,0,1.4-1.724,5.117,5.117,0,0,0,.513-2.237,3.213,3.213,0,0,0-.887-2.376,3.271,3.271,0,0,0-2.421-.887,3.9,3.9,0,0,0-3.051,1.328A4.877,4.877,0,0,0,35.3,16.935a6.124,6.124,0,0,0,1.071,3.47,38.256,38.256,0,0,0,3.353,4.123q1.863,2.005,3.006,3.447a14.924,14.924,0,0,1,1.958,3.33,10.135,10.135,0,0,1,.815,4.078,9.377,9.377,0,0,1-1.652,5.4A11.386,11.386,0,0,1,39.328,44.6,14.3,14.3,0,0,1,32.969,46,12.205,12.205,0,0,1,27.8,44.978Z" transform="translate(-23.14 -10)" fill="#44c0ff"/>
</svg>
